<?xml version="1.0" encoding="utf-8"?>
<!-- Generator: Adobe Illustrator 26.5.0, SVG Export Plug-In . SVG Version: 6.00 Build 0)  -->
<svg version="1.1" id="Layer_1_1_" xmlns="http://www.w3.org/2000/svg" xmlns:xlink="http://www.w3.org/1999/xlink" x="0px" y="0px"
	 viewBox="0 0 800 800" style="enable-background:new 0 0 800 800;" xml:space="preserve">
<style type="text/css">
	.st0{fill:#5CB3D6;stroke:#2EADD5;stroke-width:40;stroke-miterlimit:10;}
</style>
<path class="st0" d="M662.5,162.5h-8.8l-3,8.2c-15.1,41.6-37.5,79.6-65.5,112.8l-122.7-114V12.5h-125v157.1l-122.7,114
	c-28-33.2-50.4-71.2-65.5-112.8l-3-8.2h-8.8c-68.9,0-125,56.1-125,125V500c0,158.5,129,287.5,287.5,287.5c34.5,0,62.5-28,62.5-62.5
	V429.9c0-23-12.6-44.1-32.9-55l-7.4-4c-6.8-3.7-13.3-7.8-19.8-11.9l77.5-71.5h40.2l77.4,71.5c-6.5,4.1-13,8.2-19.8,11.9l-7.4,4
	c-20.3,10.9-32.9,32-32.9,55V725c0,34.5,28,62.5,62.5,62.5c158.5,0,287.5-129,287.5-287.5V287.5
	C787.5,218.6,731.4,162.5,662.5,162.5z M437.5,162.5h-75v-25h75V162.5z M437.5,112.5h-75v-25h75V112.5z M437.5,37.5v25h-75v-25
	H437.5z M354.9,187.5h90.2l30.9,28.7l-55.6,46.3h-41L324,216.2L354.9,187.5z M317.8,396.8c6.8,3.7,11.9,9.3,15.3,15.9l-88.7,99.8
	h-113l-58.8-82.3l-20.4,14.5l66.2,92.7h0.4l38.2,47.7l-36.3,27.3H100v25h29.2l33.3-25v50h25v-79.4L151,537.5h86.5v104.2l40,53.3
	l20-15l-35-46.7V529.8l75-84.4V725c0,20.7-16.8,37.5-37.5,37.5C155.2,762.5,37.5,644.7,37.5,500V287.5c0-52.3,40.3-95.3,91.5-99.6
	c8.4,21.4,18.6,42,30.3,61.4L100,320.5v92h25v-65.4l37.5,22.5v92.9h25V355.4l-56.1-33.6l42.3-50.8c35.2,50.3,81.6,92.3,136.6,121.9
	L317.8,396.8z M231.7,301.9l73.8-68.6l50.5,42.1l-74.9,69.2C263.3,331.8,246.8,317.5,231.7,301.9z M443.9,275.5l50.5-42.1l73.8,68.5
	c-15.1,15.6-31.7,29.9-49.4,42.7L443.9,275.5z M762.5,500c0,144.7-117.8,262.5-262.5,262.5c-20.7,0-37.5-16.8-37.5-37.5V445.4
	l75,84.4v103.6l-35,46.7l20,15l40-53.3V537.5H649l-36.5,45.6v79.4h25v-50l33.3,25H700v-25h-20.8l-36.3-27.3l38.2-47.7h0.4l66.2-92.7
	l-20.3-14.5l-58.8,82.3h-113l-88.7-99.8c3.4-6.6,8.5-12.2,15.3-15.8l7.4-4c55-29.6,101.4-71.6,136.6-121.9l42.3,50.8l-56,33.6v107.1
	h25v-92.9l37.5-22.5v65.4h25v-92l-59.3-71.2c11.8-19.4,22-40,30.4-61.4c51.2,4.3,91.5,47.4,91.5,99.6V500z"/>
</svg>
