<?xml version="1.0" encoding="utf-8"?>
<!-- Generator: Adobe Illustrator 26.5.0, SVG Export Plug-In . SVG Version: 6.00 Build 0)  -->
<svg version="1.1" id="Capa_1" xmlns="http://www.w3.org/2000/svg" xmlns:xlink="http://www.w3.org/1999/xlink" x="0px" y="0px"
	 viewBox="0 0 800 800" style="enable-background:new 0 0 800 800;" xml:space="preserve">
<style type="text/css">
	.st0{fill:#2EADD5;stroke:#2EADD5;stroke-width:40;stroke-miterlimit:10;}
</style>
<path class="st0" d="M611.5,27.9c-64.2,0-135.5,52.8-138.7,138.2c-1,26.5,10.9,54,23.5,83c4.5,10.3,9,20.7,13,31.2
	c-37.1-15.6-64.9-77.7-64.9-120.2c0-7.9-6.4-14.2-14.2-14.2c-7.9,0-14.2,6.4-14.2,14.2c0,57.9,41.4,142,99.9,151.4
	c1.1,1.3,2.3,2.3,3.8,3.1c0.3,1.3,0.6,2.7,0.8,4c-53,8-97.2,42.6-118.8,89.7c-22-48.1-67.6-83.1-121.9-90.2c0.4-2.2,1-4.4,1.5-6.6
	c59.5-9.4,106.2-94.6,106.2-151.4c0-7.9-6.4-14.2-14.2-14.2s-14.2,6.4-14.2,14.2c0,43.4-31.4,100.9-67.4,118.4
	c3.8-9.9,8.1-19.8,12.3-29.5c12.6-29,24.5-56.4,23.5-83c-3.2-85.4-74.5-138.2-138.7-138.2C84.6,27.9,0,168.4,0,341
	s84.6,313,188.5,313c38.3,0,109.6,0,137.9-80.7c11.2-31.9-3-69.7-19.5-113.5c-13.2-35-27.9-74.4-29.2-113.2
	c61.9,9,109.6,62.2,109.6,126.6v284.6c0,7.9,6.4,14.2,14.2,14.2c7.9,0,14.2-6.4,14.2-14.2V473.3c0-63.2,46.1-115.8,106.4-126.1
	c-1.5,38.6-16.1,77.9-29.2,112.7c-16.5,43.8-30.7,81.5-19.5,113.5C501.8,654,573.1,654,611.4,654c104,0,188.5-140.4,188.5-313
	S715.4,27.9,611.5,27.9z M299.6,563.9c-19.9,56.9-65.8,61.6-111.1,61.6c-88.3,0-160.1-127.7-160.1-284.6S100.3,56.4,188.5,56.4
	c51.3,0,107.8,44.5,110.3,110.8c0.8,20.1-9.9,44.6-21.2,70.6c-1.1,2.6-2.3,5.3-3.4,8c-20-49.2-66.5-85.6-117.7-85.6
	c-7.9,0-14.2,6.4-14.2,14.2c0,7.9,6.4,14.2,14.2,14.2c51.2,0,97.8,50.4,99.4,106.6c-2.1,7.3-3.7,14.8-4.9,22.4h-80.3
	c-7.9,0-14.2,6.4-14.2,14.2s6.4,14.2,14.2,14.2h78.3c-0.4,54.8-37.5,113-92.5,113c-7.9,0-14.2,6.4-14.2,14.2
	c0,7.9,6.4,14.2,14.2,14.2c47.5,0,84.6-31.7,104.6-72.9c5.7,19.3,12.6,37.8,19.2,55.3C294.2,506.9,307.4,541.8,299.6,563.9z
	 M611.5,625.6c-45.3,0-91.1-4.8-111.1-61.6c-7.8-22.2,5.4-57.1,19.3-94c6.6-17.5,13.5-36.1,19.2-55.3
	c22.3,42.7,65.1,72.9,111.8,72.9c7.9,0,14.2-6.4,14.2-14.2c0-7.9-6.4-14.2-14.2-14.2c-52.1,0-99.6-52.2-99.6-109.6
	c0-0.6-0.3-1.1-0.3-1.7c0-0.8,0.1-1.7,0.1-2.5h85.6c7.9,0,14.2-6.4,14.2-14.2c0-7.9-6.4-14.2-14.2-14.2h-87.6
	c-1.6-9.8-4-19.5-6.9-28.9c7-48.7,47.5-99.2,98.4-99.2c7.9,0,14.2-6.4,14.2-14.2c0-7.9-6.4-14.2-14.2-14.2
	c-52.2,0-94.8,38.1-115.1,84.2c-1-2.2-1.9-4.5-2.8-6.6c-11.3-26-21.9-50.5-21.2-70.6c2.5-66.3,59-110.8,110.3-110.8
	c88.3,0,160.1,127.7,160.1,284.6S699.7,625.6,611.5,625.6z"/>
</svg>
